<?xml version="1.0" encoding="utf-8" standalone="no"?>
<!DOCTYPE svg PUBLIC "-//W3C//DTD SVG 1.1//EN"
  "http://www.w3.org/Graphics/SVG/1.1/DTD/svg11.dtd">
<!-- Created with matplotlib (http://matplotlib.org/) -->
<svg height="720pt" version="1.1" viewBox="0 0 720 720" width="720pt" xmlns="http://www.w3.org/2000/svg" xmlns:xlink="http://www.w3.org/1999/xlink">
 <defs>
  <style type="text/css">
*{stroke-linecap:butt;stroke-linejoin:round;stroke-miterlimit:100000;}
  </style>
 </defs>
 <g id="figure_1">
  <g id="patch_1">
   <path d="M 0 720 
L 720 720 
L 720 0 
L 0 0 
z
" style="fill:#ffffff;"/>
  </g>
  <g id="axes_1">
   <g id="patch_2">
    <path clip-path="url(#p73282f200e)" d="M 369 604.636364 
C 436.26515 604.636364 500.784349 577.911636 548.347993 530.347993 
C 595.911636 482.784349 622.636364 418.26515 622.636364 351 
C 622.636364 283.73485 595.911636 219.215651 548.347993 171.652007 
C 500.784349 124.088364 436.26515 97.363636 369 97.363636 
C 301.73485 97.363636 237.215651 124.088364 189.652007 171.652007 
C 142.088364 219.215651 115.363636 283.73485 115.363636 351 
C 115.363636 418.26515 142.088364 482.784349 189.652007 530.347993 
C 237.215651 577.911636 301.73485 604.636364 369 604.636364 
L 369 604.636364 
z
" style="fill:none;stroke:#000000;stroke-linejoin:miter;"/>
   </g>
   <g id="line2d_1">
    <defs>
     <path d="M -4 0 
L 4 0 
M 0 4 
L 0 -4 
" id="md96d65e253" style="stroke:#000000;stroke-width:0.5;"/>
    </defs>
    <g clip-path="url(#p73282f200e)">
     <use style="stroke:#000000;stroke-width:0.5;" x="369.0" xlink:href="#md96d65e253" y="351.0"/>
     <use style="stroke:#000000;stroke-width:0.5;" x="622.636363636" xlink:href="#md96d65e253" y="351.0"/>
     <use style="stroke:#000000;stroke-width:0.5;" x="369.0" xlink:href="#md96d65e253" y="97.3636363636"/>
     <use style="stroke:#000000;stroke-width:0.5;" x="115.363636364" xlink:href="#md96d65e253" y="351.0"/>
     <use style="stroke:#000000;stroke-width:0.5;" x="369.0" xlink:href="#md96d65e253" y="604.636363636"/>
    </g>
   </g>
   <g id="text_1">
    <!-- N -->
    <defs>
     <path d="M 9.8125 72.90625 
L 23.09375 72.90625 
L 55.421875 11.921875 
L 55.421875 72.90625 
L 64.984375 72.90625 
L 64.984375 0 
L 51.703125 0 
L 19.390625 60.984375 
L 19.390625 0 
L 9.8125 0 
z
" id="BitstreamVeraSans-Roman-4e"/>
    </defs>
    <g transform="translate(368.940369886 91.0227272727)scale(0.0694 -0.0694)">
     <use xlink:href="#BitstreamVeraSans-Roman-4e"/>
    </g>
   </g>
  </g>
 </g>
 <defs>
  <clipPath id="p73282f200e">
   <rect height="558.0" width="558.0" x="90.0" y="72.0"/>
  </clipPath>
 </defs>
</svg>
